<svg xmlns="http://www.w3.org/2000/svg" width="125" height="125" viewBox="0 0 125 125">
  <rect width="125" height="125" rx="23" fill="#1b1c25" />
  
    <g transform="translate(3 3)">
      <circle cx="31" cy="27" r="22" fill="none" stroke="#3b3e4e" stroke-width="5.5"
        stroke-dasharray="103.67255756846316 138.23007675795088" transform="rotate(-225 31 27)" stroke-linecap="round" />
      <circle cx="31" cy="27" r="22" fill="none" stroke="#30dd6f" stroke-width="5.5" stroke-linecap="round"
        stroke-dasharray="43.542474178754524 138.23007675795088" transform="rotate(-225 31 27)" />
      <g transform="translate(24 20) scale(.58)" fill="#eef0f7">
        <path d="M22.282 9.821a6 6 0 0 0-.516-4.91a6.05 6.05 0 0 0-6.51-2.9A6.065 6.065 0 0 0 4.981 4.18a6 6 0 0 0-3.998 2.9a6.05 6.05 0 0 0 .743 7.097a5.98 5.98 0 0 0 .51 4.911a6.05 6.05 0 0 0 6.515 2.9A6 6 0 0 0 13.26 24a6.06 6.06 0 0 0 5.772-4.206a6 6 0 0 0 3.997-2.9a6.06 6.06 0 0 0-.747-7.073M13.26 22.43a4.48 4.48 0 0 1-2.876-1.04l.141-.081l4.779-2.758a.8.8 0 0 0 .392-.681v-6.737l2.02 1.168a.07.07 0 0 1 .038.052v5.583a4.504 4.504 0 0 1-4.494 4.494M3.6 18.304a4.47 4.47 0 0 1-.535-3.014l.142.085l4.783 2.759a.77.77 0 0 0 .78 0l5.843-3.369v2.332a.08.08 0 0 1-.033.062L9.74 19.95a4.5 4.5 0 0 1-6.14-1.646M2.34 7.896a4.5 4.5 0 0 1 2.366-1.973V11.6a.77.77 0 0 0 .388.677l5.815 3.354l-2.02 1.168a.08.08 0 0 1-.071 0l-4.83-2.786A4.504 4.504 0 0 1 2.34 7.872zm16.597 3.855l-5.833-3.387L15.119 7.2a.08.08 0 0 1 .071 0l4.83 2.791a4.494 4.494 0 0 1-.676 8.105v-5.678a.79.79 0 0 0-.407-.667m2.01-3.023l-.141-.085l-4.774-2.782a.78.78 0 0 0-.785 0L9.409 9.23V6.897a.07.07 0 0 1 .028-.061l4.83-2.787a4.5 4.5 0 0 1 6.68 4.66zm-12.64 4.135l-2.02-1.164a.08.08 0 0 1-.038-.057V6.075a4.5 4.5 0 0 1 7.375-3.453l-.142.08L8.704 5.46a.8.8 0 0 0-.393.681zm1.097-2.365l2.602-1.5l2.607 1.5v2.999l-2.597 1.5l-2.607-1.5Z" />
      </g>
      <text x="31" y="50" text-anchor="middle" font-family="Inter, Arial, sans-serif" font-size="9.5" font-weight="800" fill="#eef0f7">42%</text>
      <text x="31" y="57" text-anchor="middle" font-family="Inter, Arial, sans-serif" font-size="6" font-weight="800" fill="#b7bccc">128K tok</text>
    </g>
  
    <g transform="translate(60 3)">
      <circle cx="31" cy="27" r="22" fill="none" stroke="#3b3e4e" stroke-width="5.5"
        stroke-dasharray="103.67255756846316 138.23007675795088" transform="rotate(-225 31 27)" stroke-linecap="round" />
      <circle cx="31" cy="27" r="22" fill="none" stroke="#30dd6f" stroke-width="5.5" stroke-linecap="round"
        stroke-dasharray="70.49733914655495 138.23007675795088" transform="rotate(-225 31 27)" />
      <g transform="translate(24 20) scale(.58)" fill="#eef0f7">
        <path d="M23.922 16.997C23.061 18.492 18.063 22.02 12 22.02 5.937 22.02.939 18.492.078 16.997A.641.641 0 0 1 0 16.741v-2.869a.883.883 0 0 1 .053-.22c.372-.935 1.347-2.292 2.605-2.656.167-.429.414-1.055.644-1.517a10.098 10.098 0 0 1-.052-1.086c0-1.331.282-2.499 1.132-3.368.397-.406.89-.717 1.474-.952C7.255 2.937 9.248 1.98 11.978 1.98c2.731 0 4.767.957 6.166 2.093.584.235 1.077.546 1.474.952.85.869 1.132 2.037 1.132 3.368 0 .368-.014.733-.052 1.086.23.462.477 1.088.644 1.517 1.258.364 2.233 1.721 2.605 2.656a.841.841 0 0 1 .053.22v2.869a.641.641 0 0 1-.078.256Zm-11.75-5.992h-.344a4.359 4.359 0 0 1-.355.508c-.77.947-1.918 1.492-3.508 1.492-1.725 0-2.989-.359-3.782-1.259a2.137 2.137 0 0 1-.085-.104L4 11.746v6.585c1.435.779 4.514 2.179 8 2.179 3.486 0 6.565-1.4 8-2.179v-6.585l-.098-.104s-.033.045-.085.104c-.793.9-2.057 1.259-3.782 1.259-1.59 0-2.738-.545-3.508-1.492a4.359 4.359 0 0 1-.355-.508Zm2.328 3.25c.549 0 1 .451 1 1v2c0 .549-.451 1-1 1-.549 0-1-.451-1-1v-2c0-.549.451-1 1-1Zm-5 0c.549 0 1 .451 1 1v2c0 .549-.451 1-1 1-.549 0-1-.451-1-1v-2c0-.549.451-1 1-1Zm3.313-6.185c.136 1.057.403 1.913.878 2.497.442.544 1.134.938 2.344.938 1.573 0 2.292-.337 2.657-.751.384-.435.558-1.15.558-2.361 0-1.14-.243-1.847-.705-2.319-.477-.488-1.319-.862-2.824-1.025-1.487-.161-2.192.138-2.533.529-.269.307-.437.808-.438 1.578v.021c0 .265.021.562.063.893Zm-1.626 0c.042-.331.063-.628.063-.894v-.02c-.001-.77-.169-1.271-.438-1.578-.341-.391-1.046-.69-2.533-.529-1.505.163-2.347.537-2.824 1.025-.462.472-.705 1.179-.705 2.319 0 1.211.175 1.926.558 2.361.365.414 1.084.751 2.657.751 1.21 0 1.902-.394 2.344-.938.475-.584.742-1.44.878-2.497Z" />
      </g>
      <text x="31" y="50" text-anchor="middle" font-family="Inter, Arial, sans-serif" font-size="9.5" font-weight="800" fill="#eef0f7">68%</text>
      <text x="31" y="57" text-anchor="middle" font-family="Inter, Arial, sans-serif" font-size="6" font-weight="800" fill="#b7bccc">Monthly</text>
    </g>
  
    <g transform="translate(3 60)">
      <circle cx="31" cy="27" r="22" fill="none" stroke="#3b3e4e" stroke-width="5.5"
        stroke-dasharray="103.67255756846316 138.23007675795088" transform="rotate(-225 31 27)" stroke-linecap="round" />
      <circle cx="31" cy="27" r="22" fill="none" stroke="#30dd6f" stroke-width="5.5" stroke-linecap="round"
        stroke-dasharray="23.844688240746528 138.23007675795088" transform="rotate(-225 31 27)" />
      <g transform="translate(24 20) scale(.58)" fill="#eef0f7">
        <path d="M16.778 1.844v1.919q-.569-.026-1.138-.032-.708-.008-1.415.037c-1.93.126-4.023.728-6.149 2.237-2.911 2.066-2.731 1.95-4.14 2.75-.396.223-1.342.574-2.185.798-.841.225-1.753.333-1.751.333v4.229s.768.108 1.61.333c.842.224 1.789.575 2.185.799 1.41.798 1.228.683 4.14 2.75 2.126 1.509 4.22 2.11 6.148 2.236.88.058 1.716.041 2.555.005v1.918l7.222-4.168-7.222-4.17v2.176c-.86.038-1.611.065-2.278.021-1.364-.09-2.417-.357-3.979-1.465-2.244-1.593-2.866-2.027-3.68-2.508.889-.518 1.449-.906 3.822-2.59 1.56-1.109 2.614-1.377 3.978-1.466.667-.044 1.418-.017 2.278.02v2.176L24 6.014Z" />
      </g>
      <text x="31" y="50" text-anchor="middle" font-family="Inter, Arial, sans-serif" font-size="9.5" font-weight="800" fill="#eef0f7">23%</text>
      <text x="31" y="57" text-anchor="middle" font-family="Inter, Arial, sans-serif" font-size="6" font-weight="800" fill="#b7bccc">$4.28</text>
    </g>
  
    <g transform="translate(60 60)">
      <circle cx="31" cy="27" r="22" fill="none" stroke="#3b3e4e" stroke-width="5.5"
        stroke-dasharray="103.67255756846316 138.23007675795088" transform="rotate(-225 31 27)" stroke-linecap="round" />
      <circle cx="31" cy="27" r="22" fill="none" stroke="#30dd6f" stroke-width="5.5" stroke-linecap="round"
        stroke-dasharray="37.32212072464674 138.23007675795088" transform="rotate(-225 31 27)" />
      <g transform="translate(24 20) scale(.58)" fill="#eef0f7">
        <path d="M3 3h4.2v7.18L14.02 3h5.18l-7.35 7.58L21 21h-5.44l-6.5-7.5l-1.86 1.92V21H3z" />
      </g>
      <text x="31" y="50" text-anchor="middle" font-family="Inter, Arial, sans-serif" font-size="9.5" font-weight="800" fill="#eef0f7">36%</text>
      <text x="31" y="57" text-anchor="middle" font-family="Inter, Arial, sans-serif" font-size="6" font-weight="800" fill="#b7bccc">CLI</text>
    </g>
</svg>
